<?xml version="1.0" standalone="no"?>
<!DOCTYPE svg PUBLIC "-//W3C//DTD SVG 20010904//EN"
 "http://www.w3.org/TR/2001/REC-SVG-20010904/DTD/svg10.dtd">
<svg version="1.0" xmlns="http://www.w3.org/2000/svg"
 width="64.000000pt" height="64.000000pt" viewBox="0 0 64.000000 64.000000"
 preserveAspectRatio="xMidYMid meet">

<g transform="translate(0.000000,64.000000) scale(0.100000,-0.100000)"
fill="#000000" stroke="none">
<path d="M76 571 c-9 -15 31 -133 60 -175 l27 -39 -23 -80 c-21 -72 -22 -83
-9 -106 50 -89 215 -117 318 -54 73 45 79 64 51 160 l-23 80 27 39 c32 47 70
164 57 177 -18 18 -110 -44 -163 -110 -25 -32 -33 -36 -78 -36 -45 0 -53 4
-78 36 -35 43 -77 79 -119 101 -37 19 -40 19 -47 7z m49 -23 c30 -13 31 -25 6
-57 l-18 -24 -12 33 c-11 34 -14 60 -6 60 2 0 16 -5 30 -12z m425 -2 c0 -7 -5
-28 -11 -46 l-12 -33 -18 24 c-24 32 -24 44 4 57 30 15 37 14 37 -2z m-320
-92 c34 -43 37 -44 91 -44 48 0 59 4 72 23 8 12 30 37 47 55 l33 33 18 -28
c25 -38 24 -60 -6 -99 l-26 -34 21 -68 c27 -91 26 -103 -12 -139 -43 -41 -76
-53 -148 -53 -72 0 -105 12 -148 53 -38 36 -39 48 -12 139 l21 68 -26 34 c-29
39 -31 58 -8 96 20 34 32 29 83 -36z"/>
<path d="M220 296 c-27 -33 18 -72 48 -42 13 13 14 20 6 34 -15 23 -38 26 -54
8z m40 -21 c0 -8 -7 -15 -15 -15 -8 0 -15 7 -15 15 0 8 7 15 15 15 8 0 15 -7
15 -15z"/>
<path d="M370 296 c-27 -33 18 -72 48 -42 13 13 14 20 6 34 -15 23 -38 26 -54
8z m40 -21 c0 -8 -7 -15 -15 -15 -8 0 -15 7 -15 15 0 8 7 15 15 15 8 0 15 -7
15 -15z"/>
<path d="M287 233 c-4 -3 0 -14 9 -24 22 -24 11 -49 -22 -49 -17 0 -28 6 -31
20 -5 20 -23 28 -23 10 0 -22 42 -52 63 -45 28 9 46 9 74 0 21 -7 63 23 63 45
0 18 -18 10 -23 -10 -3 -14 -14 -20 -31 -20 -33 0 -44 25 -22 49 9 10 13 21 9
24 -8 9 -58 9 -66 0z"/>
</g>
</svg>
